<?xml version="1.0" encoding="utf-8"?>
<!-- Generator: Adobe Illustrator 17.1.0, SVG Export Plug-In . SVG Version: 6.00 Build 0)  -->
<!DOCTYPE svg PUBLIC "-//W3C//DTD SVG 1.1//EN" "http://www.w3.org/Graphics/SVG/1.1/DTD/svg11.dtd">
<svg version="1.1" id="Layer_1" xmlns="http://www.w3.org/2000/svg" xmlns:xlink="http://www.w3.org/1999/xlink" x="0px" y="0px"
	 viewBox="0 0 1024 768" enable-background="new 0 0 1024 768" xml:space="preserve">
<polyline fill="none" stroke="#FFFFFF" stroke-miterlimit="10" points="665.4,768 665.4,458.847 665.4,378.538 665.4,0 "/>
<line fill="none" stroke="#FFFFFF" stroke-miterlimit="10" x1="303.62" y1="0" x2="665.4" y2="357.072"/>
<polyline fill="none" stroke="#FFFFFF" stroke-miterlimit="10" points="665.4,432.827 780.527,318.826 1025,76.742 "/>
<line fill="none" stroke="#FFFFFF" stroke-miterlimit="10" x1="782.492" y1="0" x2="780.527" y2="318.826"/>
<line fill="none" stroke="#FFFFFF" stroke-miterlimit="10" x1="555.441" y1="248.54" x2="555.441" y2="0"/>
<line fill="none" stroke="#FFFFFF" stroke-miterlimit="10" x1="962.539" y1="138.593" x2="962.539" y2="0"/>
<line fill="none" stroke="#FFFFFF" stroke-miterlimit="10" x1="998.908" y1="0" x2="998.908" y2="165.325"/>
<line fill="none" stroke="#FFFFFF" stroke-miterlimit="10" x1="935.543" y1="165.325" x2="1025" y2="165.325"/>
<line fill="none" stroke="#FFFFFF" stroke-miterlimit="10" x1="407.52" y1="102.545" x2="-15.759" y2="102.545"/>
<line fill="none" stroke="#FFFFFF" stroke-miterlimit="10" x1="511.416" y1="102.545" x2="407.52" y2="0"/>
<path fill="none" stroke="#FFFFFF" stroke-miterlimit="10" d="M511.416,205.091"/>
<path fill="none" stroke="#FFFFFF" stroke-miterlimit="10" d="M665.4,153.485"/>
<line fill="none" stroke="#FFFFFF" stroke-miterlimit="10" x1="555.441" y1="221.019" x2="782.492" y2="0"/>
<path fill="none" stroke="#FFFFFF" stroke-miterlimit="10" d="M663.594,190.321"/>
<path fill="none" stroke="#FFFFFF" stroke-miterlimit="10" d="M845.201,0"/>
<path fill="none" stroke="#FFFFFF" stroke-miterlimit="10" d="M780.527,102.545"/>
<path fill="none" stroke="#FFFFFF" stroke-miterlimit="10" d="M962.539,102.545"/>
<path fill="none" stroke="#FFFFFF" stroke-miterlimit="10" d="M845.201,41.441"/>
<path fill="none" stroke="#FFFFFF" stroke-miterlimit="10" d="M900.678,16.883"/>
<path fill="none" stroke="#FFFFFF" stroke-miterlimit="10" d="M962.539,51.273"/>
<path fill="none" stroke="#FFFFFF" stroke-miterlimit="10" d="M586.033,76.742"/>
<path fill="none" stroke="#FFFFFF" stroke-miterlimit="10" d="M757.935,85.951"/>
<path fill="none" stroke="#FFFFFF" stroke-miterlimit="10" d="M757.935-4.62v96.073V-4.62z"/>
<line fill="none" stroke="#FFFFFF" stroke-miterlimit="10" x1="663.594" y1="190.321" x2="845.201" y2="0"/>
<line fill="none" stroke="#FFFFFF" stroke-miterlimit="10" x1="780.527" y1="102.545" x2="873.623" y2="11.579"/>
<line fill="none" stroke="#FFFFFF" stroke-miterlimit="10" x1="862.305" y1="0" x2="962.539" y2="102.545"/>
<line fill="none" stroke="#FFFFFF" stroke-miterlimit="10" x1="962.539" y1="51.273" x2="1014.256" y2="0"/>
<polyline fill="none" stroke="#FFFFFF" stroke-miterlimit="10" points="511.416,205.091 511.416,0 665.4,153.485 "/>
<line fill="none" stroke="#FFFFFF" stroke-miterlimit="10" x1="346.596" y1="102.545" x2="346.596" y2="0"/>
<line fill="none" stroke="#FFFFFF" stroke-miterlimit="10" x1="900.678" y1="39.256" x2="900.678" y2="0"/>
<line fill="none" stroke="#FFFFFF" stroke-miterlimit="10" x1="722.635" y1="0" x2="757.935" y2="39.256"/>
<line fill="none" stroke="#FFFFFF" stroke-miterlimit="10" x1="588.406" y1="76.742" x2="588.406" y2="0"/>
<line fill="none" stroke="#FFFFFF" stroke-miterlimit="10" x1="555.441" y1="16.883" x2="578.359" y2="0"/>
</svg>
